<svg width="2560" height="1440" viewBox="0 0 2560 1440" fill="none" xmlns="http://www.w3.org/2000/svg">
<path d="M2232.67 789.357C2278.12 621.792 2424.15 552.149 2561 534V1844C2561 1844 2135.5 2029.5 2013.5 1844C1891.5 1658.5 1698.8 1743.71 1633.5 1648C1524 1487.5 1765.56 1352.41 1925.13 1296.69C2351.62 1115.62 2187.21 956.922 2232.67 789.357Z" fill="url(#paint0_linear_322_121)"/>
<path d="M2252.78 821.238C2296.28 663.594 2436.04 598.075 2567 581V1813.44C2567 1813.44 2159.79 1987.95 2043.04 1813.44C1926.28 1638.92 1741.86 1719.08 1679.37 1629.04C1574.58 1478.04 1805.75 1350.95 1958.46 1298.54C2366.62 1128.19 2209.28 978.882 2252.78 821.238Z" stroke="url(#paint1_linear_322_121)" stroke-width="8" stroke-dasharray="16 16"/>
<path d="M2586 589C2373.16 597.022 2060.27 666.265 2187.11 1020.5C2313.94 1374.74 1856.95 1362.96 1699.62 1341.8C1542.29 1320.65 1584 1574.5 1584 1574.5C1584 1574.5 1596.54 1718.53 1658 1775C1772.07 1879.8 1893.89 1651 2040.5 1670C2187.11 1689 2332.26 1827.13 2388.5 1947C2426.5 2028 2461 2040 2568.5 2019" stroke="url(#paint2_linear_322_121)" stroke-width="8"/>
<path d="M229.618 517.276C196.584 650.959 90.4534 706.52 -9 721V-5H632C632 -5 569.095 68.0714 453.125 112.52C143.167 256.98 262.652 383.592 229.618 517.276Z" fill="url(#paint3_linear_322_121)"/>
<path d="M-28.5 695.952H-30V685.855H-28.5V675.757H-30V665.66H-28.5V655.563H-30V645.466H-28.5V635.368H-30V625.271H-28.5V615.174H-30V605.077H-28.5V594.979H-30V584.882H-28.5V574.785H-30V564.688H-28.5V554.591H-30V544.493H-28.5V534.396H-30V524.299H-28.5V514.202H-30V504.104H-28.5V494.007H-30V483.91H-28.5V473.813H-30V463.716H-28.5V453.618H-30V443.521H-28.5V433.424H-30V423.327H-28.5V413.229H-30V403.132H-28.5V393.035H-30V382.938H-28.5V372.84H-30V362.743H-28.5V352.646H-30V342.549H-28.5V332.452H-30V322.354H-28.5V312.257H-30V302.16H-28.5V292.063H-30V281.965H-28.5V271.868H-30V261.771H-28.5V251.674H-30V241.576H-28.5V231.479H-30V221.382H-28.5V211.285H-30V201.188H-28.5V191.09H-30V180.993H-28.5V170.896H-30V160.799H-28.5V150.701H-30V140.604H-28.5V130.507H-30V120.41H-28.5V110.312H-30V100.215H-28.5V90.118H-30V80.0208H-28.5V69.9236H-30V59.8264H-28.5V49.7292H-30V39.632H-28.5V29.5347H-30V19.4375H-28.5V9.34027H-30V-0.756958H-28.5V-10.8542H-30V-20.9514H-28.5V-24.5H-24.9922V-26H-14.9766V-24.5H-4.96094V-26H5.05469V-24.5H15.0703V-26H25.0859V-24.5H35.1016V-26H45.1172V-24.5H55.1328V-26H65.1484V-24.5H75.1641V-26H85.1797V-24.5H95.1953V-26H105.211V-24.5H115.227V-26H125.242V-24.5H135.258V-26H145.273V-24.5H155.289V-26H165.305V-24.5H175.32V-26H185.336V-24.5H195.352V-26H205.367V-24.5H215.383V-26H225.398V-24.5H235.414V-26H245.43V-24.5H255.445V-26H265.461V-24.5H275.477V-26H285.492V-24.5H295.508V-26H305.523V-24.5H315.539V-26H325.555V-24.5H335.57V-26H345.586V-24.5H355.602V-26H365.617V-24.5H375.633V-26H385.648V-24.5H395.664V-26H405.68V-24.5H415.695V-26H425.711V-24.5H435.727V-26H445.742V-24.5H455.758V-26H465.773V-24.5H475.789V-26H485.805V-24.5H495.82V-26H505.836V-24.5H515.852V-26H525.867V-24.5H535.883V-26H545.898V-24.5H555.914V-26H565.93V-24.5H575.945V-26H585.961V-24.5H595.977V-26H605.992V-24.5H607.63C607.329 -24.173 606.996 -23.8154 606.634 -23.4285L607.728 -22.403C606.071 -20.6342 603.789 -18.2592 600.891 -15.3824L599.834 -16.4469C597.793 -14.4207 595.445 -12.1433 592.792 -9.65167L593.819 -8.55835C591.617 -6.48938 589.206 -4.27374 586.589 -1.93225L585.589 -3.05017C583.292 -0.995117 580.835 1.15741 578.221 3.39319L579.195 4.53326C576.815 6.56873 574.304 8.67273 571.663 10.8348L570.713 9.67419C568.278 11.6677 565.732 13.7109 563.077 15.7951L564.003 16.975C561.51 18.9317 558.92 20.9245 556.235 22.9464L555.333 21.748C552.792 23.6616 550.165 25.6013 547.452 27.5613L548.331 28.7772C545.734 30.6537 543.058 32.5489 540.306 34.4574L539.451 33.2247C536.822 35.0473 534.122 36.8822 531.352 38.7249L532.182 39.9739C529.51 41.7515 526.772 43.5363 523.969 45.3242L523.162 44.0596C520.458 45.7845 517.693 47.5125 514.867 49.2398L515.649 50.5196C512.9 52.2005 510.093 53.8808 507.23 55.5571L506.472 54.2626C503.695 55.8884 500.864 57.5105 497.981 59.1257L498.714 60.4344C495.894 62.0135 493.025 63.5862 490.104 65.1495L489.396 63.827C486.553 65.3492 483.661 66.8627 480.722 68.3645L481.405 69.7003C478.521 71.1737 475.592 72.6361 472.617 74.085L471.961 72.7365C469.058 74.1502 466.112 75.5511 463.123 76.9368L463.754 78.2976C460.818 79.6586 457.84 81.0049 454.821 82.3345L454.217 80.9618C451.261 82.2632 448.267 83.5485 445.232 84.8155L445.81 86.1997C442.82 87.4486 439.79 88.6798 436.723 89.8915L436.172 88.4964C434.653 89.0964 433.125 89.6917 431.587 90.2818L431.538 90.3007L431.49 90.3229C429.892 91.0689 428.305 91.8145 426.729 92.5596L427.37 93.9156C424.223 95.4035 421.122 96.8896 418.065 98.3738L417.41 97.0244C414.348 98.5109 411.331 99.9955 408.358 101.478L409.027 102.821C405.953 104.354 402.926 105.885 399.946 107.414L399.261 106.08C396.158 107.672 393.104 109.263 390.1 110.851L390.801 112.177C387.803 113.762 384.854 115.346 381.954 116.927L381.236 115.61C378.184 117.274 375.186 118.936 372.24 120.595L372.977 121.902C369.961 123.601 367 125.298 364.094 126.993L363.339 125.697C360.419 127.4 357.554 129.1 354.743 130.798L355.519 132.082C352.503 133.904 349.549 135.723 346.656 137.54L345.858 136.27C342.958 138.091 340.118 139.91 337.338 141.727L338.159 142.983C335.256 144.88 332.419 146.774 329.645 148.666L328.8 147.426C325.936 149.38 323.139 151.33 320.409 153.279L321.28 154.5C318.485 156.494 315.76 158.486 313.102 160.475L312.203 159.274C309.407 161.368 306.685 163.458 304.035 165.546L304.964 166.724C302.273 168.845 299.657 170.963 297.116 173.078L296.157 171.925C293.465 174.165 290.855 176.402 288.324 178.637L289.317 179.761C286.74 182.037 284.246 184.31 281.833 186.579L280.805 185.487C278.262 187.879 275.807 190.267 273.439 192.653L274.504 193.709C272.065 196.166 269.718 198.619 267.46 201.069L266.357 200.052C264.012 202.597 261.761 205.139 259.601 207.677L260.744 208.649C258.484 211.305 256.326 213.957 254.264 216.605L253.081 215.684C250.954 218.415 248.929 221.143 247.002 223.867L248.227 224.733C246.227 227.56 244.333 230.383 242.541 233.202L241.275 232.397C239.401 235.343 237.636 238.284 235.975 241.223L237.28 241.961C235.587 244.955 234.002 247.945 232.519 250.931L231.175 250.264C229.635 253.366 228.203 256.463 226.873 259.557L228.251 260.15C226.888 263.321 225.633 266.488 224.479 269.651L223.07 269.137C221.883 272.389 220.801 275.637 219.817 278.881L221.253 279.316C220.259 282.591 219.365 285.862 218.563 289.129L217.106 288.772C216.285 292.114 215.559 295.453 214.919 298.787L216.392 299.07C215.748 302.425 215.191 305.778 214.713 309.127L213.228 308.915C212.742 312.314 212.337 315.709 212.002 319.1L213.494 319.248C213.16 322.636 212.895 326.021 212.692 329.405L211.195 329.315C210.989 332.728 210.846 336.137 210.754 339.543L212.254 339.584C212.162 342.982 212.122 346.378 212.124 349.773L210.624 349.773C210.626 353.184 210.67 356.592 210.746 359.997L212.245 359.963C212.321 363.36 212.428 366.755 212.558 370.15L211.059 370.207C211.189 373.608 211.341 377.007 211.505 380.404L213.003 380.332C213.167 383.725 213.343 387.118 213.521 390.511L212.023 390.589C212.062 391.328 212.101 392.067 212.14 392.806C212.279 395.459 212.419 398.112 212.554 400.765L214.052 400.689C214.224 404.082 214.389 407.475 214.536 410.869L213.037 410.934C213.184 414.323 213.313 417.711 213.415 421.099L214.914 421.054C215.016 424.449 215.09 427.845 215.127 431.243L213.628 431.259C213.664 434.643 213.664 438.027 213.617 441.412L215.117 441.433C215.069 444.825 214.975 448.22 214.824 451.618L213.325 451.551C213.176 454.923 212.97 458.295 212.698 461.67L214.193 461.79C213.921 465.169 213.583 468.551 213.171 471.937L211.682 471.756C211.275 475.089 210.796 478.425 210.234 481.764L211.713 482.013C211.153 485.34 210.512 488.671 209.78 492.006L208.315 491.685C207.953 493.334 207.569 494.984 207.162 496.636C206.765 498.243 206.358 499.838 205.941 501.422L207.391 501.805C206.548 505.005 205.662 508.16 204.734 511.269L203.297 510.84C202.356 513.997 201.372 517.107 200.347 520.17L201.769 520.646C200.715 523.795 199.617 526.895 198.477 529.947L197.072 529.423C195.918 532.512 194.72 535.552 193.48 538.542L194.866 539.117C193.598 542.176 192.285 545.184 190.931 548.142L189.567 547.518C188.197 550.509 186.783 553.448 185.327 556.337L186.667 557.012C185.179 559.965 183.647 562.864 182.072 565.712L180.759 564.986C179.17 567.861 177.537 570.683 175.862 573.452L177.146 574.228C175.434 577.059 173.678 579.835 171.881 582.557L170.629 581.73C168.818 584.473 166.965 587.16 165.071 589.793L166.289 590.669C164.36 593.351 162.389 595.978 160.378 598.549L159.196 597.625C157.175 600.209 155.112 602.737 153.011 605.211L154.154 606.182C152.018 608.696 149.842 611.154 147.628 613.557L146.525 612.54C144.304 614.95 142.045 617.304 139.749 619.602L140.811 620.662C138.482 622.994 136.115 625.269 133.714 627.489L132.696 626.387C130.291 628.61 127.852 630.776 125.378 632.887L126.352 634.028C123.848 636.166 121.31 638.248 118.74 640.274L117.811 639.097C115.241 641.123 112.64 643.094 110.009 645.01L110.892 646.223C108.232 648.16 105.543 650.042 102.825 651.87L101.988 650.626C99.2734 652.451 96.5311 654.222 93.7629 655.941L94.554 657.215C91.7594 658.949 88.939 660.63 86.0949 662.257L85.3499 660.955C82.511 662.58 79.6481 664.151 76.7639 665.671L77.463 666.998C74.5538 668.53 71.623 670.01 68.6732 671.439L68.0194 670.089C65.0751 671.515 62.1114 672.889 59.1307 674.213L59.7396 675.584C56.7345 676.918 53.7124 678.202 50.6758 679.436L50.1111 678.046C47.0793 679.278 44.0326 680.46 40.9736 681.593L41.4946 682.999C38.4105 684.142 35.3142 685.234 32.2081 686.279L31.7299 684.857C28.6263 685.901 25.5127 686.896 22.3915 687.844L22.8275 689.28C19.6793 690.236 16.5239 691.144 13.3634 692.006L12.9689 690.559C9.80743 691.421 6.64087 692.236 3.47186 693.005L3.82568 694.462C0.626465 695.239 -2.57513 695.969 -5.77649 696.654L-6.09033 695.187C-9.29755 695.874 -12.5046 696.514 -15.709 697.111L-15.4346 698.585C-18.6737 699.188 -21.91 699.746 -25.1406 700.259L-25.3762 698.778C-26.418 698.944 -27.4594 699.105 -28.5 699.261V695.952Z" stroke="url(#paint4_linear_322_121)" stroke-width="3" stroke-dasharray="10 10"/>
<path d="M719 -87C712.233 54.1855 653.822 261.735 355 177.602C56.1781 93.4688 66.1154 396.606 83.9589 500.969C101.802 605.333 91.0822 650.611 -9.00003 643.225" stroke="url(#paint5_linear_322_121)" stroke-width="8"/>
<defs>
<linearGradient id="paint0_linear_322_121" x1="2561" y1="534" x2="1442.53" y2="680.723" gradientUnits="userSpaceOnUse">
<stop stop-color="#3774C3"/>
<stop offset="1" stop-color="#2E447C"/>
</linearGradient>
<linearGradient id="paint1_linear_322_121" x1="2567" y1="581" x2="1497.24" y2="723.753" gradientUnits="userSpaceOnUse">
<stop stop-color="#FF9B04"/>
<stop offset="1" stop-color="#3578C7"/>
</linearGradient>
<linearGradient id="paint2_linear_322_121" x1="1571.82" y1="1419.91" x2="2455.17" y2="468.036" gradientUnits="userSpaceOnUse">
<stop stop-color="#FF9B04"/>
<stop offset="1" stop-color="#3578C7"/>
</linearGradient>
<linearGradient id="paint3_linear_322_121" x1="-8.99998" y1="721" x2="733.427" y2="595.628" gradientUnits="userSpaceOnUse">
<stop stop-color="#3774C3"/>
<stop offset="1" stop-color="#2E447C"/>
</linearGradient>
<linearGradient id="paint4_linear_322_121" x1="466.564" y1="0.975814" x2="79.014" y2="680.343" gradientUnits="userSpaceOnUse">
<stop offset="0.0179028" stop-color="#FF9B04"/>
<stop offset="1" stop-color="#3578C7"/>
</linearGradient>
<linearGradient id="paint5_linear_322_121" x1="18.0686" y1="585.745" x2="642.661" y2="-151.365" gradientUnits="userSpaceOnUse">
<stop stop-color="#FF9B04"/>
<stop offset="1" stop-color="#3578C7"/>
</linearGradient>
</defs>
</svg>
